# Alias Wavefront OBJ File Exported from SketchUp
# with OBJexporter (c) 2013 TIG
# Units = meters

mtllib crystal.mtl

g crystal-SKP-crystal
usemtl crystal
v 0.0433012701892 0.183710346957 0.0433019224887
v -0.0433012701892 0.183710346957 0.0433019224887
v 0 0.0918551734785 6.20392626161e-17
v -0.0433012701892 0.183710346957 -0.0433019224887
v 0 0.275565520436 2.6507684936e-16
v 0.0433012701892 0.183710346957 -0.0433006178898
v 0.0433012701892 0.183710346957 9.2249072668e-07
vt -0.227916193 1.10094752504
vt -1.09394159678 1.10094752504
vt -0.660928894893 0.350947525045
vt 1.04082987461 -0.631590646885
vt 1.90686832438 -0.631590646885
vt 1.47384909949 0.118405587025
vt 1.04082987461 0.631590646885
vt 1.47384909949 -0.118405587025
vt 1.90686832438 0.631590646885
vt 0.660906692445 1.35093217399
vt 0.227900513498 0.600935940109
vt 1.09392591738 0.600935940109
vt -1.4738583244 0.131588136145
vt -1.47384909949 0.881584370055
vt -1.90686832438 0.131588136145
vt -1.04084292059 0.131588136145
vt -1.47384909949 -0.881584370055
vt -1.4738583244 -0.131588136145
vt -1.90686832438 -0.131588136145
vt -1.04084292059 -0.131588136145
vt 0.227900513498 -0.600935940109
vt 0.660906692445 -1.35093217399
vt 1.09392591738 -0.600935940109
vt -0.660928894893 -0.350947525045
vt -1.09394159678 -1.10094752504
vt -0.227916193 -1.10094752504
vn 3.29183312342e-16 -0.426409316016 0.904530317466
vn -0.904532794972 0.42640406051 9.64017961894e-16
vn -0.904532794972 -0.42640406051 4.51358013714e-16
vn 1.36260722979e-05 0.426404060471 -0.904532794888
vn 0.904532794972 0.42640406051 4.45591966222e-16
vn 0.904532794972 -0.42640406051 -2.07542864921e-16
vn 1.36260722987e-05 -0.426404060471 -0.904532794888
vn -3.54969349943e-16 0.426409316016 0.904530317466
f 1/1/1 2/2/1 3/3/1
f 4/4/2 2/5/2 5/6/2
f 4/7/3 3/8/3 2/9/3
f 5/10/4 6/11/4 4/12/4
f 7/13/5 5/14/5 1/15/5
f 5/14/5 7/13/5 6/16/5
f 3/17/6 7/18/6 1/19/6
f 7/18/6 3/17/6 6/20/6
f 6/21/7 3/22/7 4/23/7
f 5/24/8 2/25/8 1/26/8

g crystal-SKP-crystal_transparent
usemtl crystal_transparent
v 0 0.367420693914 1.80477854883e-16
v -0.12247540963 0.183710346957 9.2249069777e-07
v 0 0.183710346957 0.12247540963
v 0 0.183710346957 -0.12247540963
v 0.122473564648 0.183710346957 9.2249074047e-07
v 0 0 0
vt -1.43569254422e-15 3.3234315691
vt -0.866025403784 1.29242892154
vt 0.866025403784 1.29242892154
vt 4.10083350436e-15 3.32344067197
vt -0.866038449773 1.29244358731
vt 0.866038449773 1.29244358731
vt 0.866012357796 2.03099708466
vt -0.866038449773 2.03099708466
vt 1.59521393802e-16 6.80205700555e-17
vt -3.87523618576e-15 3.32344067197
vt 0.866012357796 1.29244358731
vt -1.59521393802e-16 -6.80205700555e-17
vt 0.866038449773 2.03099708466
vt 0.866038449872 1.29244358742
vt 1.43563246746e-15 3.32344067204
vt -0.866012357894 1.29244358742
vt 0.866038449872 2.03099708462
vt -0.866012357894 2.03099708462
vt -1.5951899072e-16 6.80215947177e-17
vt 1.59521393802e-16 -6.80214084212e-17
vt 0.866025403784 2.03100264756
vt -0.866025403784 2.03100264756
vn -0.639599521269 0.426409316016 0.639599521269
vn -0.63960127313 0.42640406051 -0.639601273131
vn 0.63960127313 -0.42640406051 0.639601273131
vn 0.63960127313 0.42640406051 0.639601273131
vn -0.63960127313 -0.42640406051 -0.639601273131
vn 0.639610908159 0.426404060471 -0.639591637983
vn 0.639610908159 -0.426404060471 -0.639591637983
vn -0.639599521269 -0.426409316016 0.639599521269
f 8/27/9 9/28/9 10/29/9
f 8/30/10 11/31/10 9/32/10
f 12/33/11 10/34/11 13/35/11
f 8/36/12 10/31/12 12/37/12
f 11/34/13 13/38/13 9/39/13
f 11/40/14 8/41/14 12/42/14
f 11/43/15 12/44/15 13/45/15
f 13/46/16 10/47/16 9/48/16

#EOF
